<svg width="177" height="71" viewBox="0 0 177 71" fill="none" xmlns="http://www.w3.org/2000/svg">
<path d="M176 40.7754C176 40.5892 176 40.403 176 40.2168L154.359 39.2238L175.376 38.2928C175.002 37.6722 174.566 37.1757 174.004 36.8033L140.451 35.9344L168.204 35.2518C167.643 34.6932 166.894 34.3829 166.084 34.3829L151.989 32.8313L145.565 21.4117C144.754 19.9843 143.631 18.8671 142.259 18.1224L127.603 17.0052H119.682V65.2281H127.603C129.349 65.2281 130.721 63.6766 130.472 61.9388C130.285 60.7596 130.223 59.5184 130.347 58.215C131.033 51.1399 137.021 45.5542 144.13 45.2439C152.425 44.8715 159.348 51.4502 159.348 59.7045C159.348 60.4493 159.286 61.2561 159.161 62.0009C158.911 63.7386 160.283 65.2902 162.03 65.2902H171.198C173.88 65.2902 176.125 63.118 176.125 60.4493V60.2011L163.901 59.6425L176.125 59.0839V40.7754H176ZM123.362 32.521V19.7981H137.208C138.829 19.7981 140.388 20.6049 141.199 22.0323L147.062 32.4589H123.362V32.521Z" fill="#263238"/>
<path d="M144.754 48.285C138.455 48.285 133.341 53.3741 133.341 59.6425C133.341 65.9108 138.455 71 144.754 71C151.053 71 156.167 65.9108 156.167 59.6425C156.167 53.3741 151.053 48.285 144.754 48.285ZM144.754 65.2282C141.698 65.2282 139.141 62.7456 139.141 59.6425C139.141 56.6014 141.636 54.0568 144.754 54.0568C147.872 54.0568 150.367 56.5393 150.367 59.6425C150.305 62.7456 147.81 65.2282 144.754 65.2282Z" fill="#263238"/>
<path d="M111.887 27.3698C111.887 20.1705 107.646 13.5918 101.035 10.6128C98.6648 9.5577 96.0453 8.93707 93.3636 8.93707H88.8731H52.9497H0C0 17.8741 7.29695 25.1355 16.2778 25.1355H85.6924C88.0624 25.1355 90.1205 26.6871 90.7441 28.9834H16.5273C16.5273 37.9205 23.8242 45.1818 32.8051 45.1818H91.056C93.4259 45.1818 95.484 46.7334 96.1077 49.0297H32.9298C32.9298 57.9668 40.2268 65.2282 49.2077 65.2282H104.59H111.887V27.3698Z" fill="#11998E"/>
<path d="M117.313 65.2281H114.381V14.0883C114.381 7.94406 109.33 2.91696 103.155 2.91696H102.157V0H103.155C110.951 0 117.313 6.33042 117.313 14.0883V65.2281Z" fill="#263238"/>
</svg>
