<svg width="307" height="71" viewBox="0 0 307 71" fill="none" xmlns="http://www.w3.org/2000/svg">
<path d="M306 40.7754C306 40.5892 306 40.403 306 40.2168L284.359 39.2238L305.376 38.2928C305.002 37.6722 304.566 37.1757 304.004 36.8033L270.451 35.9344L298.204 35.2518C297.643 34.6932 296.894 34.3829 296.084 34.3829L281.989 32.8313L275.565 21.4117C274.754 19.9843 273.631 18.8671 272.259 18.1224L257.603 17.0052H249.682V65.2281H257.603C259.349 65.2281 260.721 63.6766 260.472 61.9388C260.285 60.7596 260.223 59.5184 260.347 58.215C261.033 51.1399 267.021 45.5542 274.13 45.2439C282.425 44.8715 289.348 51.4502 289.348 59.7045C289.348 60.4493 289.286 61.2561 289.161 62.0009C288.911 63.7386 290.283 65.2902 292.03 65.2902H301.198C303.88 65.2902 306.125 63.118 306.125 60.4493V60.2011L293.901 59.6425L306.125 59.0839V40.7754H306ZM253.362 32.521V19.7981H267.208C268.829 19.7981 270.388 20.6049 271.199 22.0323L277.062 32.4589H253.362V32.521Z" fill="#263238"/>
<path d="M274.754 48.285C268.455 48.285 263.341 53.3741 263.341 59.6425C263.341 65.9108 268.455 71 274.754 71C281.053 71 286.167 65.9108 286.167 59.6425C286.167 53.3741 281.053 48.285 274.754 48.285ZM274.754 65.2282C271.698 65.2282 269.141 62.7456 269.141 59.6425C269.141 56.6014 271.636 54.0568 274.754 54.0568C277.872 54.0568 280.367 56.5393 280.367 59.6425C280.305 62.7456 277.81 65.2282 274.754 65.2282Z" fill="#263238"/>
<path d="M241.887 27.3698C241.887 20.1705 237.646 13.5918 231.035 10.6128C228.665 9.5577 226.045 8.93707 223.364 8.93707H218.873H182.95H130C130 17.8741 137.297 25.1355 146.278 25.1355H215.692C218.062 25.1355 220.12 26.6871 220.744 28.9834H146.527C146.527 37.9205 153.824 45.1818 162.805 45.1818H221.056C223.426 45.1818 225.484 46.7334 226.108 49.0297H162.93C162.93 57.9668 170.227 65.2282 179.208 65.2282H234.59H241.887V27.3698Z" fill="#11998E"/>
<path d="M247.313 65.2281H244.381V14.0883C244.381 7.94406 239.33 2.91696 233.155 2.91696H232.157V0H233.155C240.951 0 247.313 6.33042 247.313 14.0883V65.2281Z" fill="#263238"/>
<path d="M267.145 16.3226L257.478 17.0673H249.558V12.2264H256.605C260.534 12.1644 264.276 13.6539 267.145 16.3226Z" fill="#263238"/>
<path d="M0.40752 40.475H5.33252L9.28252 55.175H8.28252L12.2325 40.475H16.7075L20.7075 55.175H19.7075L23.6325 40.475H28.3325L22.4075 58H17.7075L13.8575 44.125L14.9075 44.15L11.0075 58H6.30752L0.40752 40.475ZM34.3224 40.475H39.0224L46.3724 58H41.4974L36.5474 45.05L31.4974 58H26.7974L34.3224 40.475ZM31.2974 51.4H41.5224V54.85H31.2974V51.4ZM55.5083 40.475C56.8916 40.475 58.15 40.6917 59.2833 41.125C60.4333 41.5417 61.4166 42.1417 62.2333 42.925C63.0666 43.6917 63.7083 44.6083 64.1583 45.675C64.6083 46.7417 64.8333 47.925 64.8333 49.225C64.8333 50.5417 64.6 51.7333 64.1333 52.8C63.6833 53.8667 63.0416 54.7917 62.2083 55.575C61.375 56.3583 60.375 56.9583 59.2083 57.375C58.0416 57.7917 56.75 58 55.3333 58H47.9583V40.475H55.5083ZM55.6333 54.35C56.3 54.35 56.9083 54.2333 57.4583 54C58.0083 53.75 58.4833 53.4 58.8833 52.95C59.3 52.5 59.6166 51.9667 59.8333 51.35C60.05 50.7167 60.1583 50.025 60.1583 49.275C60.1583 48.5083 60.0416 47.8167 59.8083 47.2C59.575 46.5667 59.2416 46.025 58.8083 45.575C58.3916 45.1083 57.8916 44.7583 57.3083 44.525C56.7416 44.275 56.1083 44.15 55.4083 44.15H52.5333V54.35H55.6333ZM67.0989 40.475H71.6739V58H67.0989V40.475ZM75.0823 40.475H79.6573V58H75.0823V40.475ZM83.0657 40.475H87.6407V54.15H95.0657V58H83.0657V40.475ZM95.3276 40.475H99.9026L104.053 48.05L108.103 40.475H112.678L104.328 56.125H103.753L95.3276 40.475ZM101.778 50.3H106.353V58H101.778V50.3Z" fill="black"/>
<path d="M8.86477 29.48C7.10077 29.48 5.60677 29.15 4.38277 28.49C3.17077 27.842 2.24677 26.906 1.61077 25.682C0.986766 24.47 0.674766 23.018 0.674766 21.326C0.674766 20.918 0.692766 20.498 0.728766 20.066C0.764766 19.622 0.818766 19.172 0.890766 18.716L4.05877 19.346C3.99877 19.742 3.95077 20.09 3.91477 20.39C3.89077 20.69 3.87877 20.984 3.87877 21.272C3.87877 22.76 4.25677 23.822 5.01277 24.458C5.78077 25.106 7.02877 25.43 8.75677 25.43C9.77677 25.43 10.5988 25.34 11.2228 25.16C11.8468 24.992 12.2968 24.776 12.5728 24.512C12.8608 24.26 13.0048 24.014 13.0048 23.774C13.0048 23.546 12.9088 23.342 12.7168 23.162C12.5248 22.982 12.2668 22.802 11.9428 22.622C11.6188 22.442 11.2588 22.262 10.8628 22.082L11.8528 18.878C12.3208 19.106 12.8188 19.364 13.3468 19.652C13.8868 19.94 14.3908 20.276 14.8588 20.66C15.3388 21.044 15.7288 21.488 16.0288 21.992C16.3288 22.496 16.4788 23.078 16.4788 23.738C16.4788 24.182 16.3948 24.662 16.2268 25.178C16.0708 25.694 15.8068 26.204 15.4348 26.708C15.0748 27.212 14.6008 27.674 14.0128 28.094C13.4248 28.514 12.7048 28.85 11.8528 29.102C11.0008 29.354 10.0048 29.48 8.86477 29.48ZM15.2368 23C12.7048 23 10.7968 22.37 9.51277 21.11L11.9608 18.23C12.0688 18.338 12.2788 18.446 12.5908 18.554C12.9148 18.662 13.3048 18.758 13.7608 18.842C14.2288 18.914 14.7208 18.95 15.2368 18.95H16.6948V23H15.2368ZM16.6948 23V18.95C16.7908 18.95 16.8748 19.136 16.9468 19.508C17.0188 19.868 17.0548 20.348 17.0548 20.948C17.0548 21.572 17.0188 22.07 16.9468 22.442C16.8748 22.814 16.7908 23 16.6948 23ZM16.6934 23V18.95H21.2294V23H16.6934ZM21.2294 23V18.95C21.3254 18.95 21.4094 19.136 21.4814 19.508C21.5534 19.868 21.5894 20.348 21.5894 20.948C21.5894 21.572 21.5534 22.07 21.4814 22.442C21.4094 22.814 21.3254 23 21.2294 23ZM16.6934 23C16.5974 23 16.5134 22.814 16.4414 22.442C16.3694 22.07 16.3334 21.572 16.3334 20.948C16.3334 20.348 16.3694 19.868 16.4414 19.508C16.5134 19.136 16.5974 18.95 16.6934 18.95V23ZM21.2285 23V18.95H25.7645V23H21.2285ZM25.7645 23V18.95C25.8605 18.95 25.9445 19.136 26.0165 19.508C26.0885 19.868 26.1245 20.348 26.1245 20.948C26.1245 21.572 26.0885 22.07 26.0165 22.442C25.9445 22.814 25.8605 23 25.7645 23ZM21.2285 23C21.1325 23 21.0485 22.814 20.9765 22.442C20.9045 22.07 20.8685 21.572 20.8685 20.948C20.8685 20.348 20.9045 19.868 20.9765 19.508C21.0485 19.136 21.1325 18.95 21.2285 18.95V23ZM25.7637 23V18.95H30.2997V23H25.7637ZM30.2997 23V18.95C30.3957 18.95 30.4797 19.136 30.5517 19.508C30.6237 19.868 30.6597 20.348 30.6597 20.948C30.6597 21.572 30.6237 22.07 30.5517 22.442C30.4797 22.814 30.3957 23 30.2997 23ZM25.7637 23C25.6677 23 25.5837 22.814 25.5117 22.442C25.4397 22.07 25.4037 21.572 25.4037 20.948C25.4037 20.348 25.4397 19.868 25.5117 19.508C25.5837 19.136 25.6677 18.95 25.7637 18.95V23ZM30.2988 23V18.95H34.8348V23H30.2988ZM34.8348 23V18.95C34.9308 18.95 35.0148 19.136 35.0868 19.508C35.1588 19.868 35.1948 20.348 35.1948 20.948C35.1948 21.572 35.1588 22.07 35.0868 22.442C35.0148 22.814 34.9308 23 34.8348 23ZM30.2988 23C30.2028 23 30.1188 22.814 30.0468 22.442C29.9748 22.07 29.9388 21.572 29.9388 20.948C29.9388 20.348 29.9748 19.868 30.0468 19.508C30.1188 19.136 30.2028 18.95 30.2988 18.95V23ZM34.834 23V18.95H39.37V23H34.834ZM39.37 23V18.95C39.466 18.95 39.55 19.136 39.622 19.508C39.694 19.868 39.73 20.348 39.73 20.948C39.73 21.572 39.694 22.07 39.622 22.442C39.55 22.814 39.466 23 39.37 23ZM34.834 23C34.738 23 34.654 22.814 34.582 22.442C34.51 22.07 34.474 21.572 34.474 20.948C34.474 20.348 34.51 19.868 34.582 19.508C34.654 19.136 34.738 18.95 34.834 18.95V23ZM39.3691 23V18.95H43.9051V23H39.3691ZM43.9051 23V18.95C44.0011 18.95 44.0851 19.136 44.1571 19.508C44.2291 19.868 44.2651 20.348 44.2651 20.948C44.2651 21.572 44.2291 22.07 44.1571 22.442C44.0851 22.814 44.0011 23 43.9051 23ZM39.3691 23C39.2731 23 39.1891 22.814 39.1171 22.442C39.0451 22.07 39.0091 21.572 39.0091 20.948C39.0091 20.348 39.0451 19.868 39.1171 19.508C39.1891 19.136 39.2731 18.95 39.3691 18.95V23ZM43.9043 23V18.95H48.4403V23H43.9043ZM48.4403 23V18.95C48.5363 18.95 48.6203 19.136 48.6923 19.508C48.7643 19.868 48.8003 20.348 48.8003 20.948C48.8003 21.572 48.7643 22.07 48.6923 22.442C48.6203 22.814 48.5363 23 48.4403 23ZM43.9043 23C43.8083 23 43.7243 22.814 43.6523 22.442C43.5803 22.07 43.5443 21.572 43.5443 20.948C43.5443 20.348 43.5803 19.868 43.6523 19.508C43.7243 19.136 43.8083 18.95 43.9043 18.95V23ZM48.4395 23V18.95H52.9755V23H48.4395ZM52.9755 23V18.95C53.0715 18.95 53.1555 19.136 53.2275 19.508C53.2995 19.868 53.3355 20.348 53.3355 20.948C53.3355 21.572 53.2995 22.07 53.2275 22.442C53.1555 22.814 53.0715 23 52.9755 23ZM48.4395 23C48.3435 23 48.2595 22.814 48.1875 22.442C48.1155 22.07 48.0795 21.572 48.0795 20.948C48.0795 20.348 48.1155 19.868 48.1875 19.508C48.2595 19.136 48.3435 18.95 48.4395 18.95V23ZM52.9746 23V18.95H53.9646C54.4086 18.95 54.7506 18.908 54.9906 18.824C55.2306 18.728 55.3986 18.572 55.4946 18.356C55.5906 18.128 55.6386 17.822 55.6386 17.438V6.782H59.1126V17.438C59.1126 18.578 58.9026 19.562 58.4826 20.39C58.0626 21.218 57.4686 21.86 56.7006 22.316C55.9326 22.76 55.0206 22.988 53.9646 23H52.9746ZM60.7866 23C59.7306 23 58.8186 22.778 58.0506 22.334C57.2826 21.878 56.6886 21.236 56.2686 20.408C55.8486 19.568 55.6386 18.578 55.6386 17.438H59.1126C59.1126 17.822 59.1606 18.128 59.2566 18.356C59.3526 18.572 59.5206 18.728 59.7606 18.824C60.0006 18.908 60.3426 18.95 60.7866 18.95H61.2366V23H60.7866ZM61.2366 23V18.95C61.3326 18.95 61.4166 19.136 61.4886 19.508C61.5606 19.868 61.5966 20.348 61.5966 20.948C61.5966 21.572 61.5606 22.07 61.4886 22.442C61.4166 22.814 61.3326 23 61.2366 23ZM52.9746 23C52.8786 23 52.7946 22.814 52.7226 22.442C52.6506 22.07 52.6146 21.572 52.6146 20.948C52.6146 20.348 52.6506 19.868 52.7226 19.508C52.7946 19.136 52.8786 18.95 52.9746 18.95V23ZM61.2363 23V18.95H65.7723V23H61.2363ZM65.7723 23V18.95C65.8683 18.95 65.9523 19.136 66.0243 19.508C66.0963 19.868 66.1323 20.348 66.1323 20.948C66.1323 21.572 66.0963 22.07 66.0243 22.442C65.9523 22.814 65.8683 23 65.7723 23ZM61.2363 23C61.1403 23 61.0563 22.814 60.9843 22.442C60.9123 22.07 60.8763 21.572 60.8763 20.948C60.8763 20.348 60.9123 19.868 60.9843 19.508C61.0563 19.136 61.1403 18.95 61.2363 18.95V23ZM65.7715 23V18.95H70.3075V23H65.7715ZM70.3075 23V18.95C70.4035 18.95 70.4875 19.136 70.5595 19.508C70.6315 19.868 70.6675 20.348 70.6675 20.948C70.6675 21.572 70.6315 22.07 70.5595 22.442C70.4875 22.814 70.4035 23 70.3075 23ZM65.7715 23C65.6755 23 65.5915 22.814 65.5195 22.442C65.4475 22.07 65.4115 21.572 65.4115 20.948C65.4115 20.348 65.4475 19.868 65.5195 19.508C65.5915 19.136 65.6755 18.95 65.7715 18.95V23ZM70.3066 23V18.95H74.8426V23H70.3066ZM74.8426 23V18.95C74.9386 18.95 75.0226 19.136 75.0946 19.508C75.1666 19.868 75.2026 20.348 75.2026 20.948C75.2026 21.572 75.1666 22.07 75.0946 22.442C75.0226 22.814 74.9386 23 74.8426 23ZM70.3066 23C70.2106 23 70.1266 22.814 70.0546 22.442C69.9826 22.07 69.9466 21.572 69.9466 20.948C69.9466 20.348 69.9826 19.868 70.0546 19.508C70.1266 19.136 70.2106 18.95 70.3066 18.95V23ZM74.8418 23V18.95H79.3778V23H74.8418ZM79.3778 23V18.95C79.4738 18.95 79.5578 19.136 79.6298 19.508C79.7018 19.868 79.7378 20.348 79.7378 20.948C79.7378 21.572 79.7018 22.07 79.6298 22.442C79.5578 22.814 79.4738 23 79.3778 23ZM74.8418 23C74.7458 23 74.6618 22.814 74.5898 22.442C74.5178 22.07 74.4818 21.572 74.4818 20.948C74.4818 20.348 74.5178 19.868 74.5898 19.508C74.6618 19.136 74.7458 18.95 74.8418 18.95V23ZM79.377 23V18.95H83.913V23H79.377ZM83.913 23V18.95C84.009 18.95 84.093 19.136 84.165 19.508C84.237 19.868 84.273 20.348 84.273 20.948C84.273 21.572 84.237 22.07 84.165 22.442C84.093 22.814 84.009 23 83.913 23ZM79.377 23C79.281 23 79.197 22.814 79.125 22.442C79.053 22.07 79.017 21.572 79.017 20.948C79.017 20.348 79.053 19.868 79.125 19.508C79.197 19.136 79.281 18.95 79.377 18.95V23ZM86.7741 13.334H90.2481V23H83.9121V18.95H86.7741V13.334ZM83.9121 23C83.8161 23 83.7321 22.814 83.6601 22.442C83.5881 22.07 83.5521 21.572 83.5521 20.948C83.5521 20.348 83.5881 19.868 83.6601 19.508C83.7321 19.136 83.8161 18.95 83.9121 18.95V23ZM88.9701 27.32C88.5501 27.32 88.2021 27.188 87.9261 26.924C87.6621 26.66 87.5301 26.318 87.5301 25.898C87.5301 25.478 87.6621 25.13 87.9261 24.854C88.2021 24.578 88.5501 24.44 88.9701 24.44C89.3901 24.44 89.7381 24.578 90.0141 24.854C90.2901 25.13 90.4281 25.478 90.4281 25.898C90.4281 26.318 90.2901 26.66 90.0141 26.924C89.7381 27.188 89.3901 27.32 88.9701 27.32ZM85.6941 27.32C85.2741 27.32 84.9261 27.188 84.6501 26.924C84.3861 26.66 84.2541 26.318 84.2541 25.898C84.2541 25.478 84.3861 25.13 84.6501 24.854C84.9261 24.578 85.2741 24.44 85.6941 24.44C86.1141 24.44 86.4621 24.578 86.7381 24.854C87.0141 25.13 87.1521 25.478 87.1521 25.898C87.1521 26.318 87.0141 26.66 86.7381 26.924C86.4621 27.188 86.1141 27.32 85.6941 27.32ZM98.4941 23C98.4821 21.728 98.2661 20.606 97.8461 19.634C97.4381 18.65 96.8321 17.828 96.0281 17.168C95.2241 16.508 94.2401 16.034 93.0761 15.746L93.8141 12.002C95.4821 12.386 96.9221 13.088 98.1341 14.108C99.3461 15.128 100.282 16.394 100.942 17.906C101.614 19.418 101.956 21.116 101.968 23H98.4941ZM91.8701 23V18.95H100.618V23H91.8701ZM104.234 28.346V24.296H107.204C108.092 24.296 108.692 24.182 109.004 23.954C109.328 23.726 109.49 23.42 109.49 23.036V13.982H112.964V23.036C112.964 24.116 112.724 25.052 112.244 25.844C111.776 26.648 111.11 27.266 110.246 27.698C109.382 28.13 108.368 28.346 107.204 28.346H104.234ZM108.896 23C107.78 23 106.808 22.778 105.98 22.334C105.164 21.878 104.528 21.272 104.072 20.516C103.628 19.76 103.406 18.932 103.406 18.032C103.406 17.3 103.544 16.628 103.82 16.016C104.108 15.404 104.504 14.87 105.008 14.414C105.512 13.958 106.094 13.604 106.754 13.352C107.426 13.1 108.14 12.974 108.896 12.974C109.64 12.974 110.366 13.082 111.074 13.298C111.782 13.514 112.412 13.742 112.964 13.982L111.578 17.564C110.558 16.928 109.664 16.61 108.896 16.61C108.476 16.61 108.116 16.688 107.816 16.844C107.516 16.988 107.282 17.174 107.114 17.402C106.958 17.618 106.88 17.834 106.88 18.05C106.88 18.242 106.952 18.44 107.096 18.644C107.24 18.848 107.462 19.022 107.762 19.166C108.062 19.298 108.44 19.364 108.896 19.364H111.956V23H108.896Z" fill="black"/>
</svg>
