<svg width="239" height="75" viewBox="0 0 239 75" fill="none" xmlns="http://www.w3.org/2000/svg">
<path d="M24.596 25.9812L34.8781 36.2983C35.5752 36.9988 35.5752 38.1329 34.8781 38.8318L24.5826 49.3307L24.596 25.9812ZM28.1501 20.9311L39.6697 27.569L43.7576 29.9239L39.9199 33.7749C39.2228 34.4737 38.092 34.4737 37.3948 33.7749L25.0363 21.3797C25.7735 20.6192 27.1044 20.3123 28.1501 20.9311ZM26.8592 54.4309C26.1671 54.4309 25.5516 54.1223 25.1097 53.677L37.3948 41.3552C38.092 40.6563 39.2228 40.6563 39.9199 41.3552L43.7025 45.1511L28.0984 54.099C27.7265 54.3158 27.2978 54.4309 26.8592 54.4309ZM53.089 39.6557L46.9047 43.3132L42.4366 38.8318C41.7395 38.1329 41.7395 36.9988 42.4366 36.2983L46.9548 31.7669L53.109 35.391L53.1491 35.4127C53.9279 35.8363 54.4099 36.6419 54.4099 37.5175C54.4099 38.3998 53.9212 39.2087 53.089 39.6557ZM55.0303 32.3039L29.943 17.8473C29.0107 17.2935 27.9433 17 26.8592 17C24.0673 17 21.6223 18.903 21.0569 21.4764C20.9952 21.7233 20.8517 22.3637 20.8651 22.9725L20.8667 52.0909C20.8868 52.6813 21.0469 53.4802 21.0719 53.5769C21.769 56.1821 24.149 58 26.8592 58C27.9283 58 28.9773 57.7165 29.8796 57.1894L54.977 42.7978C56.925 41.7521 58.1358 39.7357 58.1358 37.5342C58.1358 35.356 56.9467 33.353 55.0303 32.3039Z" fill="#11998E"/>
<path d="M92.743 21.329C92.743 22.6655 92.3475 23.7292 91.5548 24.5235C90.6538 25.4676 89.4816 25.9397 88.0399 25.9397C86.6572 25.9397 85.4834 25.4612 84.5185 24.5027C83.5505 23.5458 83.0688 22.3577 83.0688 20.9415C83.0688 19.5237 83.5505 18.3372 84.5185 17.3787C85.4834 16.4218 86.6572 15.9418 88.0399 15.9418C88.7241 15.9418 89.3811 16.0757 90.0031 16.3437C90.6267 16.6116 91.1258 16.9672 91.5006 17.4122L90.6586 18.2543C90.0254 17.4983 89.1531 17.1187 88.0399 17.1187C87.032 17.1187 86.1612 17.4728 85.426 18.1809C84.6908 18.8906 84.324 19.8092 84.324 20.9415C84.324 22.0722 84.6908 22.9924 85.426 23.7005C86.1612 24.4102 87.032 24.7627 88.0399 24.7627C89.1084 24.7627 89.9983 24.407 90.7128 23.6942C91.1753 23.2301 91.4416 22.5858 91.5134 21.7565H88.0399V20.6066H92.676C92.7207 20.857 92.743 21.0978 92.743 21.329Z" fill="#11998E"/>
<path d="M92.743 21.329C92.743 22.6655 92.3475 23.7292 91.5548 24.5235C90.6538 25.4676 89.4816 25.9397 88.0399 25.9397C86.6572 25.9397 85.4834 25.4612 84.5185 24.5027C83.5505 23.5458 83.0688 22.3577 83.0688 20.9415C83.0688 19.5237 83.5505 18.3372 84.5185 17.3787C85.4834 16.4218 86.6572 15.9418 88.0399 15.9418C88.7241 15.9418 89.3811 16.0757 90.0031 16.3437C90.6267 16.6116 91.1258 16.9672 91.5006 17.4122L90.6586 18.2543C90.0254 17.4983 89.1531 17.1187 88.0399 17.1187C87.032 17.1187 86.1612 17.4728 85.426 18.1809C84.6908 18.8906 84.324 19.8092 84.324 20.9415C84.324 22.0722 84.6908 22.9924 85.426 23.7005C86.1612 24.4102 87.032 24.7627 88.0399 24.7627C89.1084 24.7627 89.9983 24.407 90.7128 23.6942C91.1753 23.2301 91.4416 22.5858 91.5134 21.7565H88.0399V20.6066H92.676C92.7207 20.857 92.743 21.0978 92.743 21.329Z" fill="#11998E"/>
<path d="M100.094 17.3326H95.737V20.3659H99.6666V21.5158H95.737V24.5491H100.094V25.7261H94.5074V16.1572H100.094V17.3326Z" fill="#11998E"/>
<path d="M100.094 17.3326H95.737V20.3659H99.6666V21.5158H95.737V24.5491H100.094V25.7261H94.5074V16.1572H100.094V17.3326Z" fill="#11998E"/>
<path d="M105.279 25.7257H104.049V17.3322H101.376V16.1568H107.952V17.3322H105.279V25.7257Z" fill="#11998E"/>
<path d="M105.279 25.7257H104.049V17.3322H101.376V16.1568H107.952V17.3322H105.279V25.7257Z" fill="#11998E"/>
<path d="M112.709 16.1568H113.939V25.7257H112.709V16.1568Z" fill="#11998E"/>
<path d="M119.392 25.7257H118.163V17.3322H115.49V16.1568H122.065V17.3322H119.392V25.7257Z" fill="#11998E"/>
<path d="M119.392 25.7257H118.163V17.3322H115.49V16.1568H122.065V17.3322H119.392V25.7257Z" fill="#11998E"/>
<path d="M128.404 23.6878C129.112 24.4054 129.978 24.7627 131.004 24.7627C132.029 24.7627 132.895 24.4054 133.603 23.6878C134.311 22.9701 134.667 22.0547 134.667 20.9415C134.667 19.8283 134.311 18.9113 133.603 18.1952C132.895 17.4776 132.029 17.1187 131.004 17.1187C129.978 17.1187 129.112 17.4776 128.404 18.1952C127.698 18.9113 127.342 19.8283 127.342 20.9415C127.342 22.0547 127.698 22.9701 128.404 23.6878ZM134.512 24.4884C133.571 25.4564 132.402 25.9397 131.004 25.9397C129.605 25.9397 128.436 25.4564 127.497 24.4884C126.556 23.5219 126.087 22.3402 126.087 20.9415C126.087 19.5429 126.556 18.3595 127.497 17.3931C128.436 16.4266 129.605 15.9418 131.004 15.9418C132.395 15.9418 133.56 16.4282 134.506 17.3994C135.45 18.3707 135.922 19.5508 135.922 20.9415C135.922 22.3402 135.452 23.5219 134.512 24.4884Z" fill="#11998E"/>
<path d="M128.404 23.6878C129.112 24.4054 129.978 24.7627 131.004 24.7627C132.029 24.7627 132.895 24.4054 133.603 23.6878C134.311 22.9701 134.667 22.0547 134.667 20.9415C134.667 19.8283 134.311 18.9113 133.603 18.1952C132.895 17.4776 132.029 17.1187 131.004 17.1187C129.978 17.1187 129.112 17.4776 128.404 18.1952C127.698 18.9113 127.342 19.8283 127.342 20.9415C127.342 22.0547 127.698 22.9701 128.404 23.6878ZM134.512 24.4884C133.571 25.4564 132.402 25.9397 131.004 25.9397C129.605 25.9397 128.436 25.4564 127.497 24.4884C126.556 23.5219 126.087 22.3402 126.087 20.9415C126.087 19.5429 126.556 18.3595 127.497 17.3931C128.436 16.4266 129.605 15.9418 131.004 15.9418C132.395 15.9418 133.56 16.4282 134.506 17.3994C135.45 18.3707 135.922 19.5508 135.922 20.9415C135.922 22.3402 135.452 23.5219 134.512 24.4884Z" fill="#11998E"/>
<path d="M137.648 25.7257V16.1568H139.144L143.794 23.5998H143.848L143.794 21.7562V16.1568H145.025V25.7257H143.741L138.876 17.9206H138.823L138.876 19.7658V25.7257H137.648Z" fill="#11998E"/>
<path d="M137.648 25.7257V16.1568H139.144L143.794 23.5998H143.848L143.794 21.7562V16.1568H145.025V25.7257H143.741L138.876 17.9206H138.823L138.876 19.7658V25.7257H137.648Z" fill="#11998E"/>
<path d="M187.845 52.835H190.838V33.7483H187.845V52.835ZM214.807 40.6236L211.376 48.8989H211.273L207.712 40.6236H204.487L209.828 52.1891L206.784 58.6231H209.905L218.136 40.6236H214.807ZM197.831 50.6669C196.849 50.6669 195.483 50.2012 195.483 49.0454C195.483 47.5736 197.185 47.0087 198.656 47.0087C199.971 47.0087 200.592 47.2789 201.391 47.6469C201.158 49.4149 199.559 50.6669 197.831 50.6669ZM198.192 40.2067C196.025 40.2067 193.779 41.1152 192.852 43.129L195.508 44.1841C196.076 43.129 197.133 42.784 198.243 42.784C199.791 42.784 201.365 43.668 201.391 45.2406V45.4361C200.849 45.1414 199.689 44.7001 198.269 44.7001C195.406 44.7001 192.489 46.1979 192.489 48.9966C192.489 51.5509 194.838 53.1968 197.469 53.1968C199.482 53.1968 200.592 52.3372 201.288 51.3295H201.391V52.8029H204.28V45.4849C204.28 42.0969 201.624 40.2067 198.192 40.2067ZM179.692 42.9474H175.434V36.405H179.692C181.93 36.405 183.201 38.1685 183.201 39.6754C183.201 41.1549 181.93 42.9474 179.692 42.9474ZM179.615 33.7483H172.443V52.835H175.434V45.604H179.615C182.933 45.604 186.194 43.3168 186.194 39.6754C186.194 36.034 182.933 33.7483 179.615 33.7483ZM140.502 50.6699C138.435 50.6699 136.704 49.0225 136.704 46.7598C136.704 44.4726 138.435 42.7993 140.502 42.7993C142.545 42.7993 144.146 44.4726 144.146 46.7598C144.146 49.0225 142.545 50.6699 140.502 50.6699ZM143.94 41.6923H143.836C143.164 40.9304 141.872 40.2419 140.244 40.2419C136.832 40.2419 133.705 43.0939 133.705 46.7598C133.705 50.3997 136.832 53.2289 140.244 53.2289C141.872 53.2289 143.164 52.5403 143.836 51.7525H143.94V52.6884C143.94 55.1725 142.545 56.5008 140.295 56.5008C138.46 56.5008 137.323 55.2458 136.858 54.1877L134.248 55.2214C134.997 56.9436 136.988 59.0582 140.295 59.0582C143.81 59.0582 146.783 57.0902 146.783 52.2945V40.6342H143.94V41.6923ZM148.851 52.835H151.849V33.7468H148.851V52.835ZM156.267 46.5384C156.19 44.0299 158.309 42.7504 159.833 42.7504C161.024 42.7504 162.031 43.3153 162.366 44.1276L156.267 46.5384ZM165.572 44.3734C165.004 42.9229 163.271 40.2419 159.731 40.2419C156.216 40.2419 153.296 42.8725 153.296 46.7354C153.296 50.3753 156.19 53.2289 160.066 53.2289C163.194 53.2289 165.004 51.4089 165.753 50.3508L163.427 48.8744C162.652 49.9569 161.592 50.6699 160.066 50.6699C158.542 50.6699 157.456 50.0058 156.758 48.7034L165.881 45.1108L165.572 44.3734ZM92.8873 42.2343V44.9887H99.8128C99.6058 46.5384 99.0636 47.6698 98.2374 48.4561C97.2284 49.4164 95.6514 50.4745 92.8873 50.4745C88.6217 50.4745 85.2881 47.2026 85.2881 43.1443C85.2881 39.0845 88.6217 35.8141 92.8873 35.8141C95.1878 35.8141 96.8674 36.6752 98.1075 37.7822L100.15 35.8385C98.4171 34.2644 96.1183 33.0582 92.8873 33.0582C87.0463 33.0582 82.1358 37.5852 82.1358 43.1443C82.1358 48.7034 87.0463 53.2289 92.8873 53.2289C96.0396 53.2289 98.4171 52.2441 100.278 50.3997C102.192 48.5798 102.785 46.0223 102.785 43.955C102.785 43.3153 102.734 42.726 102.63 42.2343H92.8873ZM110.661 50.6699C108.593 50.6699 106.809 49.047 106.809 46.7354C106.809 44.3978 108.593 42.7993 110.661 42.7993C112.727 42.7993 114.511 44.3978 114.511 46.7354C114.511 49.047 112.727 50.6699 110.661 50.6699ZM110.661 40.2419C106.886 40.2419 103.811 42.9718 103.811 46.7354C103.811 50.4745 106.886 53.2289 110.661 53.2289C114.434 53.2289 117.509 50.4745 117.509 46.7354C117.509 42.9718 114.434 40.2419 110.661 40.2419ZM125.601 50.6699C123.533 50.6699 121.749 49.047 121.749 46.7354C121.749 44.3978 123.533 42.7993 125.601 42.7993C127.669 42.7993 129.451 44.3978 129.451 46.7354C129.451 49.047 127.669 50.6699 125.601 50.6699ZM125.601 40.2419C121.828 40.2419 118.752 42.9718 118.752 46.7354C118.752 50.4745 121.828 53.2289 125.601 53.2289C129.374 53.2289 132.449 50.4745 132.449 46.7354C132.449 42.9718 129.374 40.2419 125.601 40.2419Z" fill="#11998E"/>
<rect x="1.25" y="1.25" width="236.5" height="72.5" rx="8.75" stroke="#11998E" stroke-width="2.5"/>
</svg>
