<svg width="365" height="75" viewBox="0 0 365 75" fill="none" xmlns="http://www.w3.org/2000/svg">
<path d="M87.596 25.9812L97.8781 36.2983C98.5752 36.9988 98.5752 38.1329 97.8781 38.8318L87.5826 49.3307L87.596 25.9812ZM91.1501 20.9311L102.67 27.569L106.758 29.9239L102.92 33.7749C102.223 34.4737 101.092 34.4737 100.395 33.7749L88.0363 21.3797C88.7735 20.6192 90.1044 20.3123 91.1501 20.9311ZM89.8592 54.4309C89.1671 54.4309 88.5516 54.1223 88.1097 53.677L100.395 41.3552C101.092 40.6563 102.223 40.6563 102.92 41.3552L106.703 45.1511L91.0984 54.099C90.7265 54.3158 90.2978 54.4309 89.8592 54.4309ZM116.089 39.6557L109.905 43.3132L105.437 38.8318C104.74 38.1329 104.74 36.9988 105.437 36.2983L109.955 31.7669L116.109 35.391L116.149 35.4127C116.928 35.8363 117.41 36.6419 117.41 37.5175C117.41 38.3998 116.921 39.2087 116.089 39.6557ZM118.03 32.3039L92.943 17.8473C92.0107 17.2935 90.9433 17 89.8592 17C87.0673 17 84.6223 18.903 84.0569 21.4764C83.9952 21.7233 83.8517 22.3637 83.8651 22.9725L83.8667 52.0909C83.8868 52.6813 84.0469 53.4802 84.0719 53.5769C84.769 56.1821 87.149 58 89.8592 58C90.9283 58 91.9773 57.7165 92.8796 57.1894L117.977 42.7978C119.925 41.7521 121.136 39.7357 121.136 37.5342C121.136 35.356 119.947 33.353 118.03 32.3039Z" fill="#11998E"/>
<path d="M155.743 21.329C155.743 22.6655 155.347 23.7292 154.555 24.5235C153.654 25.4676 152.482 25.9397 151.04 25.9397C149.657 25.9397 148.483 25.4612 147.519 24.5027C146.55 23.5458 146.069 22.3577 146.069 20.9415C146.069 19.5237 146.55 18.3372 147.519 17.3787C148.483 16.4218 149.657 15.9418 151.04 15.9418C151.724 15.9418 152.381 16.0757 153.003 16.3437C153.627 16.6116 154.126 16.9672 154.501 17.4122L153.659 18.2543C153.025 17.4983 152.153 17.1187 151.04 17.1187C150.032 17.1187 149.161 17.4728 148.426 18.1809C147.691 18.8906 147.324 19.8092 147.324 20.9415C147.324 22.0722 147.691 22.9924 148.426 23.7005C149.161 24.4102 150.032 24.7627 151.04 24.7627C152.108 24.7627 152.998 24.407 153.713 23.6942C154.175 23.2301 154.442 22.5858 154.513 21.7565H151.04V20.6066H155.676C155.721 20.857 155.743 21.0978 155.743 21.329Z" fill="#11998E"/>
<path d="M155.743 21.329C155.743 22.6655 155.347 23.7292 154.555 24.5235C153.654 25.4676 152.482 25.9397 151.04 25.9397C149.657 25.9397 148.483 25.4612 147.519 24.5027C146.55 23.5458 146.069 22.3577 146.069 20.9415C146.069 19.5237 146.55 18.3372 147.519 17.3787C148.483 16.4218 149.657 15.9418 151.04 15.9418C151.724 15.9418 152.381 16.0757 153.003 16.3437C153.627 16.6116 154.126 16.9672 154.501 17.4122L153.659 18.2543C153.025 17.4983 152.153 17.1187 151.04 17.1187C150.032 17.1187 149.161 17.4728 148.426 18.1809C147.691 18.8906 147.324 19.8092 147.324 20.9415C147.324 22.0722 147.691 22.9924 148.426 23.7005C149.161 24.4102 150.032 24.7627 151.04 24.7627C152.108 24.7627 152.998 24.407 153.713 23.6942C154.175 23.2301 154.442 22.5858 154.513 21.7565H151.04V20.6066H155.676C155.721 20.857 155.743 21.0978 155.743 21.329Z" fill="#11998E"/>
<path d="M163.094 17.3326H158.737V20.3659H162.667V21.5158H158.737V24.5491H163.094V25.7261H157.507V16.1572H163.094V17.3326Z" fill="#11998E"/>
<path d="M163.094 17.3326H158.737V20.3659H162.667V21.5158H158.737V24.5491H163.094V25.7261H157.507V16.1572H163.094V17.3326Z" fill="#11998E"/>
<path d="M168.279 25.7257H167.049V17.3322H164.376V16.1568H170.952V17.3322H168.279V25.7257Z" fill="#11998E"/>
<path d="M168.279 25.7257H167.049V17.3322H164.376V16.1568H170.952V17.3322H168.279V25.7257Z" fill="#11998E"/>
<path d="M175.709 16.1568H176.939V25.7257H175.709V16.1568Z" fill="#11998E"/>
<path d="M182.392 25.7257H181.163V17.3322H178.49V16.1568H185.065V17.3322H182.392V25.7257Z" fill="#11998E"/>
<path d="M182.392 25.7257H181.163V17.3322H178.49V16.1568H185.065V17.3322H182.392V25.7257Z" fill="#11998E"/>
<path d="M191.404 23.6878C192.112 24.4054 192.978 24.7627 194.004 24.7627C195.029 24.7627 195.895 24.4054 196.603 23.6878C197.311 22.9701 197.667 22.0547 197.667 20.9415C197.667 19.8283 197.311 18.9113 196.603 18.1952C195.895 17.4776 195.029 17.1187 194.004 17.1187C192.978 17.1187 192.112 17.4776 191.404 18.1952C190.698 18.9113 190.342 19.8283 190.342 20.9415C190.342 22.0547 190.698 22.9701 191.404 23.6878ZM197.512 24.4884C196.571 25.4564 195.402 25.9397 194.004 25.9397C192.605 25.9397 191.436 25.4564 190.497 24.4884C189.556 23.5219 189.087 22.3402 189.087 20.9415C189.087 19.5429 189.556 18.3595 190.497 17.3931C191.436 16.4266 192.605 15.9418 194.004 15.9418C195.395 15.9418 196.56 16.4282 197.506 17.3994C198.45 18.3707 198.922 19.5508 198.922 20.9415C198.922 22.3402 198.452 23.5219 197.512 24.4884Z" fill="#11998E"/>
<path d="M191.404 23.6878C192.112 24.4054 192.978 24.7627 194.004 24.7627C195.029 24.7627 195.895 24.4054 196.603 23.6878C197.311 22.9701 197.667 22.0547 197.667 20.9415C197.667 19.8283 197.311 18.9113 196.603 18.1952C195.895 17.4776 195.029 17.1187 194.004 17.1187C192.978 17.1187 192.112 17.4776 191.404 18.1952C190.698 18.9113 190.342 19.8283 190.342 20.9415C190.342 22.0547 190.698 22.9701 191.404 23.6878ZM197.512 24.4884C196.571 25.4564 195.402 25.9397 194.004 25.9397C192.605 25.9397 191.436 25.4564 190.497 24.4884C189.556 23.5219 189.087 22.3402 189.087 20.9415C189.087 19.5429 189.556 18.3595 190.497 17.3931C191.436 16.4266 192.605 15.9418 194.004 15.9418C195.395 15.9418 196.56 16.4282 197.506 17.3994C198.45 18.3707 198.922 19.5508 198.922 20.9415C198.922 22.3402 198.452 23.5219 197.512 24.4884Z" fill="#11998E"/>
<path d="M200.648 25.7257V16.1568H202.144L206.794 23.5998H206.848L206.794 21.7562V16.1568H208.025V25.7257H206.741L201.876 17.9206H201.823L201.876 19.7658V25.7257H200.648Z" fill="#11998E"/>
<path d="M200.648 25.7257V16.1568H202.144L206.794 23.5998H206.848L206.794 21.7562V16.1568H208.025V25.7257H206.741L201.876 17.9206H201.823L201.876 19.7658V25.7257H200.648Z" fill="#11998E"/>
<path d="M250.845 52.835H253.838V33.7483H250.845V52.835ZM277.807 40.6236L274.376 48.8989H274.273L270.712 40.6236H267.487L272.828 52.1891L269.784 58.6231H272.905L281.136 40.6236H277.807ZM260.831 50.6669C259.849 50.6669 258.483 50.2012 258.483 49.0454C258.483 47.5736 260.185 47.0087 261.656 47.0087C262.971 47.0087 263.592 47.2789 264.391 47.6469C264.158 49.4149 262.559 50.6669 260.831 50.6669ZM261.192 40.2067C259.025 40.2067 256.779 41.1152 255.852 43.129L258.508 44.1841C259.076 43.129 260.133 42.784 261.243 42.784C262.791 42.784 264.365 43.668 264.391 45.2406V45.4361C263.849 45.1414 262.689 44.7001 261.269 44.7001C258.406 44.7001 255.489 46.1979 255.489 48.9966C255.489 51.5509 257.838 53.1968 260.469 53.1968C262.482 53.1968 263.592 52.3372 264.288 51.3295H264.391V52.8029H267.28V45.4849C267.28 42.0969 264.624 40.2067 261.192 40.2067ZM242.692 42.9474H238.434V36.405H242.692C244.93 36.405 246.201 38.1685 246.201 39.6754C246.201 41.1549 244.93 42.9474 242.692 42.9474ZM242.615 33.7483H235.443V52.835H238.434V45.604H242.615C245.933 45.604 249.194 43.3168 249.194 39.6754C249.194 36.034 245.933 33.7483 242.615 33.7483ZM203.502 50.6699C201.435 50.6699 199.704 49.0225 199.704 46.7598C199.704 44.4726 201.435 42.7993 203.502 42.7993C205.545 42.7993 207.146 44.4726 207.146 46.7598C207.146 49.0225 205.545 50.6699 203.502 50.6699ZM206.94 41.6923H206.836C206.164 40.9304 204.872 40.2419 203.244 40.2419C199.832 40.2419 196.705 43.0939 196.705 46.7598C196.705 50.3997 199.832 53.2289 203.244 53.2289C204.872 53.2289 206.164 52.5403 206.836 51.7525H206.94V52.6884C206.94 55.1725 205.545 56.5008 203.295 56.5008C201.46 56.5008 200.323 55.2458 199.858 54.1877L197.248 55.2214C197.997 56.9436 199.988 59.0582 203.295 59.0582C206.81 59.0582 209.783 57.0902 209.783 52.2945V40.6342H206.94V41.6923ZM211.851 52.835H214.849V33.7468H211.851V52.835ZM219.267 46.5384C219.19 44.0299 221.309 42.7504 222.833 42.7504C224.024 42.7504 225.031 43.3153 225.366 44.1276L219.267 46.5384ZM228.572 44.3734C228.004 42.9229 226.271 40.2419 222.731 40.2419C219.216 40.2419 216.296 42.8725 216.296 46.7354C216.296 50.3753 219.19 53.2289 223.066 53.2289C226.194 53.2289 228.004 51.4089 228.753 50.3508L226.427 48.8744C225.652 49.9569 224.592 50.6699 223.066 50.6699C221.542 50.6699 220.456 50.0058 219.758 48.7034L228.881 45.1108L228.572 44.3734ZM155.887 42.2343V44.9887H162.813C162.606 46.5384 162.064 47.6698 161.237 48.4561C160.228 49.4164 158.651 50.4745 155.887 50.4745C151.622 50.4745 148.288 47.2026 148.288 43.1443C148.288 39.0845 151.622 35.8141 155.887 35.8141C158.188 35.8141 159.867 36.6752 161.107 37.7822L163.15 35.8385C161.417 34.2644 159.118 33.0582 155.887 33.0582C150.046 33.0582 145.136 37.5852 145.136 43.1443C145.136 48.7034 150.046 53.2289 155.887 53.2289C159.04 53.2289 161.417 52.2441 163.278 50.3997C165.192 48.5798 165.785 46.0223 165.785 43.955C165.785 43.3153 165.734 42.726 165.63 42.2343H155.887ZM173.661 50.6699C171.593 50.6699 169.809 49.047 169.809 46.7354C169.809 44.3978 171.593 42.7993 173.661 42.7993C175.727 42.7993 177.511 44.3978 177.511 46.7354C177.511 49.047 175.727 50.6699 173.661 50.6699ZM173.661 40.2419C169.886 40.2419 166.811 42.9718 166.811 46.7354C166.811 50.4745 169.886 53.2289 173.661 53.2289C177.434 53.2289 180.509 50.4745 180.509 46.7354C180.509 42.9718 177.434 40.2419 173.661 40.2419ZM188.601 50.6699C186.533 50.6699 184.749 49.047 184.749 46.7354C184.749 44.3978 186.533 42.7993 188.601 42.7993C190.669 42.7993 192.451 44.3978 192.451 46.7354C192.451 49.047 190.669 50.6699 188.601 50.6699ZM188.601 40.2419C184.828 40.2419 181.752 42.9718 181.752 46.7354C181.752 50.4745 184.828 53.2289 188.601 53.2289C192.374 53.2289 195.449 50.4745 195.449 46.7354C195.449 42.9718 192.374 40.2419 188.601 40.2419Z" fill="#11998E"/>
<rect x="1.25" y="1.25" width="362.5" height="72.5" rx="8.75" stroke="#11998E" stroke-width="2.5"/>
</svg>
