<svg width="24" height="24" viewBox="0 0 24 24" fill="none" xmlns="http://www.w3.org/2000/svg">
<g clip-path="url(#clip0_1_116)">
<path d="M12 24C18.6274 24 24 18.6274 24 12C24 5.37258 18.6274 0 12 0C5.37258 0 0 5.37258 0 12C0 18.6274 5.37258 24 12 24Z" fill="#A8A8A8"/>
<path d="M19.5 15.5673C19.4985 15.7309 19.4584 15.8918 19.383 16.037C19.3077 16.1822 19.1992 16.3077 19.0664 16.4032C18.9058 16.5219 18.7272 16.614 18.5373 16.6759C18.2391 16.7695 17.9347 16.8419 17.6264 16.8927C17.613 17.002 17.5911 17.11 17.5609 17.2159C17.5183 17.3838 17.4378 17.5397 17.3255 17.6716C17.2132 17.8035 17.0722 17.9079 16.9132 17.9768C16.7329 18.0463 16.5405 18.0793 16.3473 18.0736C16.211 18.0736 16.0596 18.0627 15.9027 18.0518C15.7459 18.0409 15.5605 18.0259 15.3873 18.0259C15.181 18.0162 14.9749 18.0491 14.7819 18.1227C14.5882 18.2127 14.381 18.3341 14.1628 18.4609C13.556 18.8182 12.8687 19.2273 12.0001 19.2273C11.1314 19.2273 10.4442 18.8182 9.83736 18.465C9.61915 18.3382 9.41192 18.2168 9.21828 18.1268C9.02529 18.0532 8.81917 18.0202 8.61284 18.03C8.43964 18.03 8.26648 18.0423 8.0974 18.0559C7.92833 18.0695 7.79197 18.0777 7.65284 18.0777C7.45965 18.0833 7.26728 18.0504 7.08692 17.9809C6.92786 17.9122 6.78673 17.8078 6.67442 17.6759C6.56211 17.544 6.48163 17.388 6.4392 17.22C6.40905 17.1141 6.38718 17.006 6.37376 16.8968C6.06538 16.8461 5.76097 16.7737 5.46284 16.68C5.27299 16.618 5.09435 16.526 4.93376 16.4073C4.80037 16.3114 4.69155 16.1853 4.61619 16.0393C4.54082 15.8933 4.50105 15.7316 4.50012 15.5673C4.50219 15.3886 4.55578 15.2142 4.65447 15.0652C4.75316 14.9163 4.89275 14.7989 5.05648 14.7273C5.18904 14.6667 5.32574 14.6157 5.46556 14.5745C6.04648 14.3878 6.9042 14.1136 7.36376 12.6818L6.66697 12.4091C6.07484 12.1887 5.7357 11.5656 5.87197 10.9487C5.92828 10.6896 6.0729 10.4583 6.28104 10.2941C6.48398 10.1367 6.7333 10.0509 6.99012 10.05C7.07923 10.0502 7.16801 10.0607 7.25468 10.0814L7.48925 10.136C7.50017 9.86324 7.50561 9.57552 7.50561 9.28095C7.50672 8.68228 7.62871 8.08999 7.86425 7.5396C8.32249 6.46192 9.17801 5.602 10.2533 5.13824C10.8047 4.89973 11.3994 4.77763 12.0001 4.77959C12.5966 4.78034 13.1868 4.90236 13.7347 5.13824C14.8086 5.60131 15.6648 6.45751 16.1279 7.53144C16.3643 8.0816 16.4868 8.67398 16.4879 9.2728C16.4879 9.56736 16.4879 9.85372 16.5042 10.1278L16.7388 10.0732C16.9066 10.0332 17.0814 10.0315 17.2499 10.0683C17.4185 10.1051 17.5766 10.1795 17.7124 10.286C17.9231 10.449 18.0703 10.6805 18.1284 10.9405C18.2692 11.5602 17.9292 12.1883 17.3334 12.4092L16.6366 12.6819C17.1016 14.111 17.9593 14.3837 18.5375 14.5678C18.6772 14.6092 18.8139 14.6602 18.9466 14.7205C19.1109 14.7929 19.2507 14.9114 19.349 15.0618C19.4472 15.2121 19.4997 15.3877 19.5 15.5673Z" fill="white"/>
</g>
<defs>
<clipPath id="clip0_1_116">
<rect width="24" height="24" fill="white"/>
</clipPath>
</defs>
</svg>
