<svg width="1920" height="871" viewBox="0 0 1920 871" fill="none" xmlns="http://www.w3.org/2000/svg">
<rect width="1920" height="871" fill="white"/>
<path d="M1020.24 513.515C918.505 513.515 835.812 431.065 835.541 329.485H1679.45H1680.1L1679.93 328.854C1672.78 302.404 1649.16 284.531 1621.97 284.531H832.202C730.464 284.531 647.771 202.08 647.501 100.5H1249.44H1658.16H1709.25C1739.69 100.5 1769.42 107.571 1796.33 119.597C1871.36 153.544 1919.5 228.512 1919.5 310.552V742.5H1836.98H1206.86C1105.13 742.5 1022.43 660.049 1022.16 558.469H1740.47H1741.13L1740.96 557.839C1733.8 531.389 1710.19 513.515 1683 513.515H1020.24Z" stroke="#11998E" stroke-opacity="0.19"/>
</svg>
